<?xml version="1.0" encoding="UTF-8" standalone="no"?>
<!-- Created with Inkscape (http://www.inkscape.org/) -->

<svg
   xmlns:dc="http://purl.org/dc/elements/1.1/"
   xmlns:cc="http://creativecommons.org/ns#"
   xmlns:rdf="http://www.w3.org/1999/02/22-rdf-syntax-ns#"
   xmlns:svg="http://www.w3.org/2000/svg"
   xmlns="http://www.w3.org/2000/svg"
   xmlns:sodipodi="http://sodipodi.sourceforge.net/DTD/sodipodi-0.dtd"
   xmlns:inkscape="http://www.inkscape.org/namespaces/inkscape"
   width="500"
   height="500"
   id="svg3978"
   version="1.1"
   inkscape:version="0.48.2 r9819"
   sodipodi:docname="iortcw.svg"
   inkscape:export-filename="C:\Users\chris\Pictures\SVG\baseio\iortcw.png"
   inkscape:export-xdpi="92.160004"
   inkscape:export-ydpi="92.160004">
  <defs
     id="defs3980" />
  <sodipodi:namedview
     id="base"
     pagecolor="#ffffff"
     bordercolor="#666666"
     borderopacity="1.0"
     inkscape:pageopacity="0.0"
     inkscape:pageshadow="2"
     inkscape:zoom="0.7"
     inkscape:cx="343.13633"
     inkscape:cy="385.46339"
     inkscape:document-units="px"
     inkscape:current-layer="layer1"
     showgrid="true"
     inkscape:window-width="1586"
     inkscape:window-height="992"
     inkscape:window-x="239"
     inkscape:window-y="3"
     inkscape:window-maximized="0">
    <inkscape:grid
       type="xygrid"
       id="grid4494"
       empspacing="5"
       visible="true"
       enabled="true"
       snapvisiblegridlinesonly="true" />
  </sodipodi:namedview>
  <metadata
     id="metadata3983">
    <rdf:RDF>
      <cc:Work
         rdf:about="">
        <dc:format>image/svg+xml</dc:format>
        <dc:type
           rdf:resource="http://purl.org/dc/dcmitype/StillImage" />
        <dc:title></dc:title>
      </cc:Work>
    </rdf:RDF>
  </metadata>
  <g
     inkscape:label="Layer 1"
     inkscape:groupmode="layer"
     id="layer1"
     transform="translate(0,-552.36218)">
    <path
       style="fill:#a02c2c;fill-opacity:1;stroke:none"
       d="m 153.65625,612.36218 c -19.09309,13.16112 -35.36236,30.11564 -47.71875,49.78125 l 7.96875,0 c 9.64142,-19.28077 23.23442,-36.24191 39.75,-49.78125 z m 192.6875,0 c 16.51558,13.53934 30.10858,30.50048 39.75,49.78125 l 7.96875,0 C 381.70611,642.47782 365.43684,625.5233 346.34375,612.36218 z m -266.25,134.78125 C 80.04101,748.88387 80,750.64014 80,752.39343 c 0,78.30772 52.95314,144.23941 125,163.96875 l 0,-41 C 148.21791,857.79555 105.67089,807.87933 98.875,747.14343 l -18.78125,0 z m 321.03125,0 C 393.93458,811.39429 346.73409,863.53837 285,878.08093 l 0,40.71875 c 77.09356,-16.13831 135,-84.51809 135,-166.40625 0,-1.75329 -0.041,-3.50956 -0.0937,-5.25 l -18.78125,0 z"
       id="path4496"
       inkscape:connector-curvature="0" />
    <path
       style="fill:#a02c2c;fill-opacity:1;stroke:none"
       d="m 20,667.14339 175,0 0,30 15,0 0,-60 5,5 20,5 5,5 -15,0 0,45 0,15 -175,0 -10,-15 140,0 0,-15 -150,0 z"
       id="rect4502"
       inkscape:connector-curvature="0"
       sodipodi:nodetypes="ccccccccccccccccc" />
    <path
       sodipodi:nodetypes="ccccccccccccccccc"
       inkscape:connector-curvature="0"
       id="path4505"
       d="m 480,667.14339 -185,0 0,30 -15,0 0,-60 -5,5 -20,5 -5,5 15,0 0,45 0,15 185,0 10,-15 -150,0 0,-15 160,0 z"
       style="fill:#a02c2c;fill-opacity:1;stroke:none" />
    <path
       style="fill:#a02c2c;fill-opacity:1;stroke:none"
       d="m 60,727.14339 10,15 140,0 0,215.00004 15,-15 10,-10 0,59.99998 20,-19.99996 0,-30.00002 10,-10 0,25 15,-15 0,-200.00004 150,0 10,-15 -175,0 0,190.00004 -10,10 0,-235.00004 -20,0 0,225.00004 -10,10 0,-200.00004 z"
       id="rect4507"
       inkscape:connector-curvature="0"
       sodipodi:nodetypes="cccccccccccccccccccccccc" />
    <path
       sodipodi:type="arc"
       style="fill:#a02c2c;fill-opacity:1;stroke:none"
       id="path4516"
       sodipodi:cx="245"
       sodipodi:cy="45"
       sodipodi:rx="10"
       sodipodi:ry="10"
       d="m 255,45 a 10,10 0 1 1 -20,0 10,10 0 1 1 20,0 z"
       transform="translate(0,627.14339)" />
  </g>
</svg>
