<?xml version="1.0" encoding="UTF-8" standalone="no"?>
<!-- Created with Sodipodi ("http://www.sodipodi.com/") -->

<svg
   xmlns:dc="http://purl.org/dc/elements/1.1/"
   xmlns:cc="http://creativecommons.org/ns#"
   xmlns:rdf="http://www.w3.org/1999/02/22-rdf-syntax-ns#"
   xmlns:svg="http://www.w3.org/2000/svg"
   xmlns="http://www.w3.org/2000/svg"
   xmlns:xlink="http://www.w3.org/1999/xlink"
   xmlns:sodipodi="http://sodipodi.sourceforge.net/DTD/sodipodi-0.dtd"
   xmlns:inkscape="http://www.inkscape.org/namespaces/inkscape"
   id="svg559"
   sodipodi:version="0.33"
   width="810pt"
   height="420pt"
   sodipodi:docname="wolf.svg"
   version="1.1"
   inkscape:version="0.47 r22583">
  <metadata
     id="metadata2890">
    <rdf:RDF>
      <cc:Work
         rdf:about="">
        <dc:format>image/svg+xml</dc:format>
        <dc:type
           rdf:resource="http://purl.org/dc/dcmitype/StillImage" />
        <dc:title></dc:title>
      </cc:Work>
    </rdf:RDF>
  </metadata>
  <defs
     id="defs561">
    <inkscape:perspective
       sodipodi:type="inkscape:persp3d"
       inkscape:vp_x="0 : 262.5 : 1"
       inkscape:vp_y="0 : 1000 : 0"
       inkscape:vp_z="1012.5 : 262.5 : 1"
       inkscape:persp3d-origin="506.25 : 175 : 1"
       id="perspective2892" />
    <linearGradient
       id="linearGradient563">
      <stop
         style="stop-color:#000;stop-opacity:1;"
         offset="0"
         id="stop564" />
      <stop
         style="stop-color:#fff;stop-opacity:1;"
         offset="1"
         id="stop565" />
    </linearGradient>
    <linearGradient
       xlink:href="#linearGradient563"
       id="linearGradient566" />
    <radialGradient
       xlink:href="#linearGradient563"
       id="radialGradient567"
       cx="0.500000"
       cy="0.500000"
       r="0.500000"
       fx="0.500000"
       fy="0.500000" />
    <linearGradient
       xlink:href="#linearGradient563"
       id="linearGradient576" />
  </defs>
  <sodipodi:namedview
     id="base"
     showgrid="false"
     inkscape:zoom="0.44952381"
     inkscape:cx="506.25"
     inkscape:cy="262.5"
     inkscape:window-width="1920"
     inkscape:window-height="998"
     inkscape:window-x="0"
     inkscape:window-y="28"
     inkscape:window-maximized="1"
     inkscape:current-layer="svg559" />
  <path
     style="font-size:12.000;fill:#7f7f7f;fill-opacity:1.0000;fill-rule:evenodd;stroke:none;stroke-width:1.250000;"
     d="M 533.6748 159.6527 L 533.6751 77.97066 C 523.3189 77.86888 517.8053 79.88327 506.7023 80.71362 C 507.2012 55.08858 499.7279 20.16869 565.9234 14.96941 C 657.2717 4.630966 634.8713 3.390617 644.1646 3.415833 L 644.4106 68.71891 L 1009.640 68.27694 L 827.4923 230.3500 L 638.7621 230.3752 L 638.6174 393.1081 L 534.6067 486.4254 L 534.6017 443.2791 L 452.4292 518.2667 L 451.9447 412.0441 L 370.7314 484.9688 L 369.8231 230.3752 L 181.0929 230.3500 L -1.055296 68.27694 L 364.1746 68.71891 L 364.4206 3.415833 C 373.7139 3.390617 351.3135 4.630966 442.6617 14.96941 C 508.8572 20.16869 501.3839 55.08858 501.8828 80.71362 C 490.7798 79.88327 485.2662 77.86888 474.9100 77.97066 L 474.9103 159.6527 L 533.6748 159.6527 z "
     id="path587"
     sodipodi:nodetypes="cccccccccccccccccccccccc" />
  <g
     id="g572"
     style="fill:#7f0000;fill-opacity:1.0000;">
    <path
       style="fill:#7f0000;fill-rule:evenodd;stroke:none;stroke-opacity:1;stroke-width:1pt;stroke-linejoin:miter;stroke-linecap:butt;fill-opacity:1.0000;"
       d="M 453.8335 161.0548 L 134.7392 162.7368 L 102.5021 133.7704 L 261.4429 133.7704 L 276.8135 119.8483 L 86.87505 119.8954 L 52.08006 89.40998 L 357.3091 89.48063 L 317.1321 126.2021 L 387.3985 126.5760 L 386.4639 28.37135 L 425.9793 33.78929 C 434.8880 35.06603 457.9454 37.92938 463.1744 39.58237 C 477.8797 44.17183 484.3265 58.22895 480.8371 60.60818 C 479.1443 61.74671 477.7585 59.70291 472.8026 59.76723 C 464.1498 59.87831 453.6096 68.21362 453.6467 83.59272 L 453.8335 161.0548 z "
       id="path573"
       sodipodi:nodetypes="ccccccccccccssssc" />
    <path
       style="fill:#7f0000;fill-rule:evenodd;stroke:none;stroke-opacity:1;stroke-width:1pt;stroke-linejoin:miter;stroke-linecap:butt;fill-opacity:1.0000;"
       d="M 153.8003 180.3031 L 454.5813 180.4897 L 453.7404 350.4562 L 474.8925 330.6938 L 474.5362 180.5595 L 536.1679 180.5246 L 535.7111 350.8493 L 556.9326 330.4635 L 556.5692 180.5715 L 857.1769 180.3240 L 819.5731 212.2504 L 617.4240 212.5929 L 617.6368 387.2041 L 557.3012 440.4371 L 556.9534 366.2192 L 535.5045 385.4984 L 535.5464 417.3918 L 474.8530 470.3089 L 475.0212 365.6866 L 393.2381 439.4105 L 392.4437 213.2869 L 191.1764 213.1004 L 153.8003 180.3031 z "
       id="path575"
       sodipodi:nodetypes="ccccccccccccccccccccccc" />
    <path
       style="fill:#7f0000;fill-rule:evenodd;stroke:none;stroke-opacity:1;stroke-width:1pt;stroke-linejoin:miter;stroke-linecap:butt;fill-opacity:1.0000;"
       d="M 556.8870 161.0548 L 875.9813 162.7368 L 908.2184 133.7704 L 749.2776 133.7704 L 733.9070 119.8483 L 923.8454 119.8954 L 958.6404 89.40998 L 653.4114 89.48063 L 693.5884 126.2021 L 623.3220 126.5760 L 624.2566 28.37135 L 584.7412 33.78929 C 575.8325 35.06603 552.7751 37.92938 547.5461 39.58237 C 532.8408 44.17183 526.3940 58.22895 529.8834 60.60818 C 531.5762 61.74671 532.9620 59.70291 537.9179 59.76723 C 546.5707 59.87831 557.1109 68.21362 557.0738 83.59272 L 556.8870 161.0548 z "
       id="path576"
       sodipodi:nodetypes="ccccccccccccssssc" />
  </g>
  <path
     style="fill:#000000"
     d="m 120.46083,147.81682 -14.4121,-13.2425 78.44898,-0.10496 78.44898,-0.10495 8.30949,-7.72583 8.3095,-7.72582 -96.05529,-0.0602 -96.055279,-0.0602 -15.996989,-13.9036 -15.996989,-13.903601 74.790617,-0.585735 c 41.13484,-0.322154 108.28052,-0.322154 149.21262,0 l 74.422,0.585735 -18.63893,16.684321 c -10.2514,9.17638 -18.71482,17.43512 -18.80759,18.35276 -0.0928,0.91763 15.84829,1.66843 35.42456,1.66843 l 35.59322,0 0,-48.94068 c 0,-26.917373 0.50829,-48.940678 1.12955,-48.940678 5.90522,0 68.4018,9.607884 73.87709,11.357465 3.93638,1.257839 9.83843,5.473578 13.11563,9.368307 l 5.95853,7.081329 -8.10302,1.317109 c -10.27636,1.670375 -16.38979,7.196376 -19.2156,17.369232 -1.22356,4.404772 -2.23025,25.276946 -2.23706,46.382616 l -0.0124,38.37394 -158.54871,0 -158.5487,0 -14.4121,-13.2425 z"
     id="path2894" />
  <path
     style="fill:#000000"
     d="m 476.44068,416.04568 c 0,-27.67893 -0.7508,-50.31881 -1.66843,-50.31082 -0.91764,0.008 -19.43724,16.06077 -41.15467,35.67284 l -39.48622,35.65836 0,-112.42075 0,-112.42073 -101.09816,0 -101.09816,0 -16.80439,-14.71432 c -9.24241,-8.09287 -16.80438,-15.10028 -16.80438,-15.57203 0,-0.47175 66.69704,-0.85772 148.21565,-0.85772 l 148.21564,0 -1.64586,84.5339 c -0.90522,46.49364 -0.92048,84.5339 -0.0338,84.5339 0.88656,0 6.50591,-4.09746 12.48741,-9.10546 l 10.87538,-9.10545 0,-75.42845 0,-75.42844 28.91949,0 28.91949,0 0,85.77439 0,85.77438 12.23517,-10.56307 12.23517,-10.56308 0,-75.21131 0,-75.21131 147.37818,0.0926 147.37818,0.0926 -8.89831,7.92861 c -4.89407,4.36074 -13.00565,11.32648 -18.02572,15.47943 l -9.12741,7.55083 -100.43297,0 -100.43297,0 -0.04,87.31461 -0.04,87.31462 -28.32324,24.7982 -28.32337,24.7982 -0.61125,-35.36494 c -0.3362,-19.45071 -1.15146,-35.36493 -1.81172,-35.36493 -0.66025,0 -6.14078,4.2545 -12.17897,9.45445 l -10.97851,9.45445 -0.001,15.99796 -0.001,15.99796 -25.02648,21.82487 c -13.76457,12.00369 -26.77834,23.19651 -28.91949,24.87295 -3.68272,2.88343 -3.89301,0.32975 -3.89301,-47.2773 l 0,0 z"
     id="path2896" />
  <path
     style="fill:#000000"
     d="m 558.73759,122.68538 c -0.007,-21.10567 -1.0135,-41.977844 -2.23706,-46.382616 -2.82582,-10.172856 -8.93924,-15.698857 -19.21559,-17.369232 l -8.10304,-1.317109 5.95855,-7.081329 c 3.2772,-3.894729 9.17922,-8.110468 13.11561,-9.368307 5.47529,-1.749581 67.97187,-11.357465 73.87711,-11.357465 0.62125,0 1.12954,22.023305 1.12954,48.940678 l 0,48.94068 35.59322,0 c 19.57627,0 35.51732,-0.7508 35.42456,-1.66843 -0.0928,-0.91764 -8.55619,-9.17638 -18.80759,-18.35276 l -18.63892,-16.684321 74.42199,-0.585735 c 40.93209,-0.322154 108.07777,-0.322154 149.21261,0 l 74.79063,0.585735 -15.997,13.903601 -15.99699,13.9036 -96.05527,0.0602 -96.05529,0.0602 8.30949,7.72582 8.3095,7.72583 78.44897,0.10495 78.44899,0.10496 -14.4121,13.2425 -14.41209,13.2425 -158.54871,0 -158.54871,0 -0.0124,-38.37394 z"
     id="path2898" />
</svg>
