<?xml version="1.0" encoding="UTF-8" standalone="no"?>
<!DOCTYPE svg PUBLIC "-//W3C//DTD SVG 20010904//EN" "http://www.w3.org/TR/2001/REC-SVG-20010904/DTD/svg10.dtd">
<!-- Created with Sodipodi ("http://www.sodipodi.com/") -->
<svg id="svg559" sodipodi:version="0.33" width="810pt" height="420pt" xmlns="http://www.w3.org/2000/svg" xmlns:sodipodi="http://sodipodi.sourceforge.net/DTD/sodipodi-0.dtd" xmlns:xlink="http://www.w3.org/1999/xlink" sodipodi:docname="/home/zinx/tmp/wet" sodipodi:docbase="/home/zinx/tmp">
  <defs id="defs561">
    <linearGradient id="linearGradient563">
      <stop style="stop-color:#000;stop-opacity:1;" offset="0" id="stop564"/>
      <stop style="stop-color:#fff;stop-opacity:1;" offset="1" id="stop565"/>
    </linearGradient>
    <linearGradient xlink:href="#linearGradient563" id="linearGradient566"/>
    <radialGradient xlink:href="#linearGradient563" id="radialGradient567" cx="0.500000" cy="0.500000" r="0.500000" fx="0.500000" fy="0.500000"/>
    <linearGradient xlink:href="#linearGradient563" id="linearGradient576"/>
  </defs>
  <sodipodi:namedview id="base"/>
  <path style="font-size:12.000;fill:#7f7f7f;fill-opacity:1.0000;fill-rule:evenodd;stroke:none;stroke-width:1.250000;" d="M 533.6748 159.6527 L 533.6751 77.97066 C 523.3189 77.86888 517.8053 79.88327 506.7023 80.71362 C 507.2012 55.08858 499.7279 20.16869 565.9234 14.96941 C 657.2717 4.630966 634.8713 3.390617 644.1646 3.415833 L 644.4106 68.71891 L 1009.640 68.27694 L 827.4923 230.3500 L 638.7621 230.3752 L 638.6174 393.1081 L 534.6067 486.4254 L 534.6017 443.2791 L 452.4292 518.2667 L 451.9447 412.0441 L 370.7314 484.9688 L 369.8231 230.3752 L 181.0929 230.3500 L -1.055296 68.27694 L 364.1746 68.71891 L 364.4206 3.415833 C 373.7139 3.390617 351.3135 4.630966 442.6617 14.96941 C 508.8572 20.16869 501.3839 55.08858 501.8828 80.71362 C 490.7798 79.88327 485.2662 77.86888 474.9100 77.97066 L 474.9103 159.6527 L 533.6748 159.6527 z " id="path587" sodipodi:nodetypes="cccccccccccccccccccccccc"/>
  <g id="g572" style="fill:#7f0000;fill-opacity:1.0000;">
    <path style="fill:#7f0000;fill-rule:evenodd;stroke:none;stroke-opacity:1;stroke-width:1pt;stroke-linejoin:miter;stroke-linecap:butt;fill-opacity:1.0000;" d="M 453.8335 161.0548 L 134.7392 162.7368 L 102.5021 133.7704 L 261.4429 133.7704 L 276.8135 119.8483 L 86.87505 119.8954 L 52.08006 89.40998 L 357.3091 89.48063 L 317.1321 126.2021 L 387.3985 126.5760 L 386.4639 28.37135 L 425.9793 33.78929 C 434.8880 35.06603 457.9454 37.92938 463.1744 39.58237 C 477.8797 44.17183 484.3265 58.22895 480.8371 60.60818 C 479.1443 61.74671 477.7585 59.70291 472.8026 59.76723 C 464.1498 59.87831 453.6096 68.21362 453.6467 83.59272 L 453.8335 161.0548 z " id="path573" sodipodi:nodetypes="ccccccccccccssssc"/>
    <path style="fill:#7f0000;fill-rule:evenodd;stroke:none;stroke-opacity:1;stroke-width:1pt;stroke-linejoin:miter;stroke-linecap:butt;fill-opacity:1.0000;" d="M 153.8003 180.3031 L 454.5813 180.4897 L 453.7404 350.4562 L 474.8925 330.6938 L 474.5362 180.5595 L 536.1679 180.5246 L 535.7111 350.8493 L 556.9326 330.4635 L 556.5692 180.5715 L 857.1769 180.3240 L 819.5731 212.2504 L 617.4240 212.5929 L 617.6368 387.2041 L 557.3012 440.4371 L 556.9534 366.2192 L 535.5045 385.4984 L 535.5464 417.3918 L 474.8530 470.3089 L 475.0212 365.6866 L 393.2381 439.4105 L 392.4437 213.2869 L 191.1764 213.1004 L 153.8003 180.3031 z " id="path575" sodipodi:nodetypes="ccccccccccccccccccccccc"/>
    <path style="fill:#7f0000;fill-rule:evenodd;stroke:none;stroke-opacity:1;stroke-width:1pt;stroke-linejoin:miter;stroke-linecap:butt;fill-opacity:1.0000;" d="M 556.8870 161.0548 L 875.9813 162.7368 L 908.2184 133.7704 L 749.2776 133.7704 L 733.9070 119.8483 L 923.8454 119.8954 L 958.6404 89.40998 L 653.4114 89.48063 L 693.5884 126.2021 L 623.3220 126.5760 L 624.2566 28.37135 L 584.7412 33.78929 C 575.8325 35.06603 552.7751 37.92938 547.5461 39.58237 C 532.8408 44.17183 526.3940 58.22895 529.8834 60.60818 C 531.5762 61.74671 532.9620 59.70291 537.9179 59.76723 C 546.5707 59.87831 557.1109 68.21362 557.0738 83.59272 L 556.8870 161.0548 z " id="path576" sodipodi:nodetypes="ccccccccccccssssc"/>
  </g>
</svg>